<svg width="20" height="20" viewBox="0 0 20 20" fill="none"
  xmlns="http://www.w3.org/2000/svg">
  <path d="M20 10C20 12.1118 19.3315 14.1694 18.0902 15.8779C16.8489 17.5863 15.0986 18.858 13.0902 19.5106C11.0817 20.1631 8.91826 20.1631 6.90983 19.5106C4.9014 18.858 3.15111 17.5863 1.90983 15.8779C0.668549 14.1694 -1.84619e-07 12.1118 0 10C1.84619e-07 7.88821 0.66855 5.83062 1.90983 4.12215C3.15111 2.41367 4.9014 1.14201 6.90983 0.489434C8.91827 -0.163145 11.0817 -0.163145 13.0902 0.489435L11.8541 4.29366C10.649 3.90211 9.35096 3.90211 8.1459 4.29366C6.94084 4.68521 5.89067 5.4482 5.1459 6.47329C4.40113 7.49837 4 8.73292 4 10C4 11.2671 4.40113 12.5016 5.1459 13.5267C5.89067 14.5518 6.94084 15.3148 8.1459 15.7063C9.35096 16.0979 10.649 16.0979 11.8541 15.7063C13.0592 15.3148 14.1093 14.5518 14.8541 13.5267C15.5989 12.5016 16 11.2671 16 10L20 10Z" fill="white"/>
</svg>

