<svg key='0' width="22" height="27" viewBox="0 0 22 27"
  xmlns="http://www.w3.org/2000/svg">
  <path d="M11.2094 14C16.5108 14 19.0898 14 20.0898 14M20.0898 14C21.0898 14 21.0898 18 20.0898 18M20.0898 14C21.0898 14 21.0898 10 20.0898 10C19.0898 10 7.5 10 7 10C6.5 10 6.58984 8.50001 8.08984 5.00001C9.58984 1.50001 8.08984 1 6.58984 1C5.08984 1 1.08984 9.50006 1.08984 12.5001C1.08984 15.5001 1.08984 26 1.08984 26C1.08984 26 18.0898 26 19.0898 26C20.0898 26 21.0898 22 20.0898 22M11.2094 18C15.5469 18 19.0898 18 20.0898 18M20.0898 22C19.0898 22 14.583 22 11.2094 22M20.0898 22C21.0898 22 21.0898 18 20.0898 18" stroke="white" stroke-width="2" />
</svg>