<?xml version="1.0" encoding="utf-8"?>
<!-- Generator: Adobe Illustrator 18.0.0, SVG Export Plug-In . SVG Version: 6.00 Build 0)  -->
<!DOCTYPE svg PUBLIC "-//W3C//DTD SVG 1.1//EN" "http://www.w3.org/Graphics/SVG/1.1/DTD/svg11.dtd">
<svg version="1.1" id="Layer_1"
	xmlns="http://www.w3.org/2000/svg"
	xmlns:xlink="http://www.w3.org/1999/xlink" x="0px" y="0px" viewBox="0 0 30 30" enable-background="new 0 0 30 30" xml:space="preserve">
	<g>
		<path fill="#404040" d="M15,6.6C6.7,6.6,0,10.4,0,15s6.7,8.4,15,8.4s15-3.7,15-8.4S23.3,6.6,15,6.6z M15,22c-3.9,0-7-3.1-7-7
		c0-3.9,3.1-7,7-7s7,3.1,7,7C22,18.9,18.9,22,15,22z"/>
		<circle fill="#404040" cx="15" cy="15" r="5.4"/>
		<path fill="#404040" d="M3.9,27.1c-0.3,0-0.5-0.1-0.7-0.3c-0.4-0.4-0.4-1,0-1.4L25.4,3.2c0.4-0.4,1-0.4,1.4,0s0.4,1,0,1.4L4.6,26.8
		C4.4,27,4.2,27.1,3.9,27.1z"/>
	</g>
</svg>
