<svg width="22" height="30" viewBox="0 0 22 30" fill="none" xmlns="http://www.w3.org/2000/svg">
<path d="M11.3728 2.95496C12.8728 2.95496 14.3628 3.35496 15.6728 4.11496C19.7928 6.49496 21.2129 11.785 18.8329 15.905C17.2929 18.565 14.4328 20.2249 11.3528 20.2249C9.85284 20.2249 8.36285 19.825 7.04285 19.065C2.92285 16.685 1.50284 11.395 3.88284 7.27496C5.43284 4.60496 8.29285 2.95496 11.3728 2.95496ZM11.3728 0.954956C7.70285 0.954956 4.12285 2.86496 2.15285 6.27496C-0.787153 11.355 0.962846 17.865 6.04285 20.795C7.71285 21.765 9.54284 22.2249 11.3528 22.2249C15.0228 22.2249 18.6028 20.315 20.5728 16.905C23.5128 11.825 21.7628 5.31495 16.6828 2.38495C15.0028 1.41495 13.1828 0.954956 11.3728 0.954956Z" fill="white"/>
<path d="M6.32321 20.3149L1.2832 29.0449" stroke="white" stroke-width="2" stroke-miterlimit="10"/>
</svg>
