<svg width="38" height="58" viewBox="0 0 38 58" fill="none" xmlns="http://www.w3.org/2000/svg">
<g filter="url(#filter0_dd_433_813)">
<path fill-rule="evenodd" clip-rule="evenodd" d="M9 2H29C30.6569 2 32 3.34315 32 5V45C32 46.6569 30.6569 48 29 48H9C7.34315 48 6 46.6569 6 45V5C6 3.34315 7.34315 2 9 2ZM4 5C4 2.23858 6.23858 0 9 0H29C31.7614 0 34 2.23858 34 5V45C34 47.7614 31.7614 50 29 50H9C6.23858 50 4 47.7614 4 45V5ZM19.5 45C20.8807 45 22 43.8807 22 42.5C22 41.1193 20.8807 40 19.5 40C18.1193 40 17 41.1193 17 42.5C17 43.8807 18.1193 45 19.5 45Z" fill="white"/>
</g>
<defs>
<filter id="filter0_dd_433_813" x="0" y="0" width="38" height="58" filterUnits="userSpaceOnUse" color-interpolation-filters="sRGB">
<feFlood flood-opacity="0" result="BackgroundImageFix"/>
<feColorMatrix in="SourceAlpha" type="matrix" values="0 0 0 0 0 0 0 0 0 0 0 0 0 0 0 0 0 0 127 0" result="hardAlpha"/>
<feOffset dy="4"/>
<feGaussianBlur stdDeviation="2"/>
<feComposite in2="hardAlpha" operator="out"/>
<feColorMatrix type="matrix" values="0 0 0 0 0 0 0 0 0 0 0 0 0 0 0 0 0 0 0.25 0"/>
<feBlend mode="normal" in2="BackgroundImageFix" result="effect1_dropShadow_433_813"/>
<feColorMatrix in="SourceAlpha" type="matrix" values="0 0 0 0 0 0 0 0 0 0 0 0 0 0 0 0 0 0 127 0" result="hardAlpha"/>
<feOffset dy="4"/>
<feGaussianBlur stdDeviation="2"/>
<feComposite in2="hardAlpha" operator="out"/>
<feColorMatrix type="matrix" values="0 0 0 0 0 0 0 0 0 0 0 0 0 0 0 0 0 0 0.25 0"/>
<feBlend mode="normal" in2="effect1_dropShadow_433_813" result="effect2_dropShadow_433_813"/>
<feBlend mode="normal" in="SourceGraphic" in2="effect2_dropShadow_433_813" result="shape"/>
</filter>
</defs>
</svg>
